#N canvas 0 0 1334 658 16;
#X obj 133 88 unpackOSC;
#X obj 421 456 vline~;
#X msg 422 403 1 10 \, 0 60 10;
#X obj 259 564 *~;
#X obj 625 448 / 127;
#X obj 638 525 line~;
#X msg 621 489 \$1 10;
#X obj 750 177 routeOSC /6;
#X floatatom 690 379 5 0 0 0 - - -, f 5;
#X obj 280 646 dac~;
#X obj 138 450 osc~ 440;
#X obj 370 592 *~;
#X obj 841 295 loadbang;
#X msg 783 335 127;
#X obj 957 514 freeverb~;
#X msg 1076 372 dry \$1;
#X msg 1074 313 wet \$1;
#X obj 1073 261 hsl 36 24 0.05 0.5 0 0 empty empty empty -2 -8 0 10
-262144 -1 -1 964 1;
#X obj 1160 323 hsl 36 24 0 0.5 0 0 empty empty empty -2 -8 0 10 -262144
-1 -1 3479 1;
#X obj 1212 374 hsl 36 24 0 0.8 0 0 empty empty empty -2 -8 0 10 -262144
-1 -1 599 1;
#X msg 1075 434 roomsize \$1;
#X obj 1258 183 loadbang;
#X msg 1162 268 0.497;
#X msg 1249 252 0.137;
#X msg 1128 231 0.174;
#X floatatom 1235 420 5 0 0 0 - - -, f 5;
#X msg 1281 326 0.8;
#X msg 147 268 262;
#X msg 227 268 294;
#X msg 295 269 330;
#X msg 371 266 349;
#X msg 449 265 392;
#X obj 112 35 udpreceive 1234;
#X obj 230 115 routeOSC /play;
#X obj 142 186 route 0 1 2 3 4 5;
#X text 752 146 volume ctrl (tbd with pressure);
#X connect 0 0 33 0;
#X connect 1 0 3 1;
#X connect 2 0 1 0;
#X connect 3 0 11 0;
#X connect 4 0 6 0;
#X connect 5 0 11 1;
#X connect 6 0 5 0;
#X connect 7 0 8 0;
#X connect 8 0 4 0;
#X connect 10 0 3 0;
#X connect 11 0 14 0;
#X connect 11 0 14 1;
#X connect 12 0 13 0;
#X connect 13 0 8 0;
#X connect 14 0 9 0;
#X connect 14 1 9 1;
#X connect 15 0 14 0;
#X connect 16 0 14 0;
#X connect 17 0 16 0;
#X connect 18 0 15 0;
#X connect 19 0 20 0;
#X connect 19 0 25 0;
#X connect 20 0 14 0;
#X connect 21 0 24 0;
#X connect 21 0 22 0;
#X connect 21 0 23 0;
#X connect 22 0 18 0;
#X connect 23 0 19 0;
#X connect 24 0 17 0;
#X connect 26 0 19 0;
#X connect 27 0 2 0;
#X connect 27 0 10 0;
#X connect 28 0 2 0;
#X connect 28 0 10 0;
#X connect 29 0 2 0;
#X connect 29 0 10 0;
#X connect 30 0 2 0;
#X connect 30 0 10 0;
#X connect 31 0 2 0;
#X connect 31 0 10 0;
#X connect 32 0 0 0;
#X connect 33 0 34 0;
#X connect 34 0 27 0;
#X connect 34 1 28 0;
#X connect 34 2 29 0;
#X connect 34 3 30 0;
#X connect 34 4 31 0;
#X connect 34 5 7 0;
